<svg version="1.2" class="" baseProfile="tiny-ps"
    xmlns="http://www.w3.org/2000/svg" viewBox="0 0 40 46" width="40" height="46">
    <title>982aa912-0865-4c1a-bc4b-c9fe243b974f</title>
    <defs>
        <linearGradient id="grd1" gradientUnits="userSpaceOnUse" x1="7.447" y1="14.241" x2="613.133" y2="14.241">
            <stop offset="0" stop-color="#7eeee6" />
            <stop offset="100" stop-color="#26d4ed" />
        </linearGradient>
        <linearGradient id="grd2" gradientUnits="userSpaceOnUse" x1="0" y1="0.534" x2="1560.79" y2="0.534">
            <stop offset="0" stop-color="#7eeee6" />
            <stop offset="100" stop-color="#26d4ed" />
        </linearGradient>
    </defs>
    <style>
		tspan { white-space:pre }
		.shp0 { fill: url(#grd1) }
		.shp1 { fill: url(#grd2) }
    </style>
    <g id="982aa912-0865-4c1a-bc4b-c9fe243b974f">
        <path id="Layer" fill-rule="evenodd" class="shp0" d="M31.17 21.53C31.3 21.54 31.42 21.57 31.53 21.62C31.64 21.68 31.74 21.75 31.82 21.85C31.91 21.94 31.97 22.05 32.01 22.17C32.05 22.29 32.06 22.41 32.06 22.54C32.05 22.66 32.01 22.78 31.96 22.89C31.9 23.01 31.83 23.11 31.73 23.19C31.64 23.27 31.53 23.33 31.41 23.37C31.3 23.41 31.17 23.43 31.05 23.42C29.36 23.31 27.8 23.66 26.38 24.46L26.37 24.46C25.52 24.94 24.72 25.58 23.97 26.38C23.89 26.47 23.82 26.55 23.74 26.63C21.96 28.71 21.86 32.27 21.86 32.85L21.85 31.74C21.85 31.74 21.85 31.74 21.85 31.74C21.85 31.74 21.85 31.73 21.85 31.73C21.85 31.73 21.85 31.73 21.85 31.73C21.85 31.73 21.85 31.73 21.85 31.73C21.85 32.09 21.85 32.47 21.85 32.86C21.85 32.88 21.85 32.9 21.85 32.92C21.9 37.64 22.1 44.04 22.8 44.76C23.92 45.91 16.79 45.47 17.57 44.76C18.05 44.33 18.3 38.1 18.42 33.32L18.42 33.24C18.55 29.35 17.34 27.27 16.95 26.7C16.92 26.66 16.9 26.64 16.88 26.61C14.8 23.89 11.55 20.67 8.52 21.05C8.27 21.08 8.01 21.01 7.81 20.86C7.62 20.7 7.49 20.48 7.45 20.23C7.42 19.98 7.49 19.72 7.65 19.53C7.8 19.33 8.03 19.2 8.28 19.16C10.36 18.9 12.37 19.78 14.12 21.09C14.59 19.98 15.6 18.81 17.52 18.36C17.62 18.34 17.73 18.34 17.84 18.35C17.94 18.37 18.04 18.41 18.13 18.47C18.22 18.52 18.3 18.6 18.36 18.68C18.42 18.77 18.47 18.87 18.49 18.97C18.52 19.08 18.52 19.18 18.5 19.29C18.48 19.39 18.45 19.49 18.39 19.58C18.33 19.67 18.26 19.75 18.17 19.81C18.09 19.88 17.99 19.92 17.88 19.94C16.14 20.35 15.61 21.51 15.45 22.19C16.28 22.95 17.02 23.76 17.67 24.55L17.68 24.55C18.6 25.56 21.46 26.22 23.13 24.55C23.19 24.5 23.24 24.45 23.28 24.42C23.41 24.3 23.53 24.19 23.66 24.08C23.79 23.97 23.92 23.87 24.05 23.76C24.18 23.66 24.32 23.56 24.46 23.46C24.59 23.36 24.73 23.27 24.87 23.17C23.55 18.05 20.9 15.97 20.87 15.95C20.77 15.87 20.69 15.78 20.63 15.67C20.57 15.56 20.53 15.44 20.51 15.32C20.49 15.19 20.5 15.07 20.53 14.95C20.56 14.83 20.62 14.71 20.69 14.61C20.77 14.52 20.86 14.43 20.97 14.37C21.08 14.31 21.2 14.27 21.32 14.25C21.45 14.23 21.57 14.24 21.69 14.27C21.81 14.3 21.93 14.36 22.03 14.44C22.16 14.54 25.08 16.82 26.6 22.26C27.91 21.72 29.43 21.41 31.17 21.53ZM21.86 32.89L21.86 32.85C21.86 32.85 21.85 32.86 21.85 32.86C21.86 32.87 21.86 32.88 21.86 32.89Z" />
        <path id="Layer" class="shp1" d="M10.93 34.55C4.9 34.55 0 29.44 0 23.15C0 18.97 2.23 15.1 5.73 13.12C5.72 13.02 5.71 12.92 5.7 12.81C5.7 12.71 5.69 12.61 5.68 12.5C5.68 12.4 5.67 12.3 5.67 12.19C5.67 12.09 5.67 11.99 5.67 11.88C5.67 5.62 10.55 0.53 16.55 0.53C20.21 0.53 23.65 2.49 25.65 5.67C25.86 5.66 26.07 5.65 26.27 5.65C33.57 5.65 39.51 11.85 39.51 19.47C39.51 27.09 33.57 33.28 26.27 33.28C25.52 33.28 24.77 33.22 24.03 33.09C23.92 33.06 23.8 33.02 23.7 32.96C23.6 32.89 23.51 32.81 23.44 32.71C23.38 32.61 23.33 32.5 23.3 32.38C23.28 32.26 23.27 32.14 23.29 32.02C23.31 31.91 23.36 31.79 23.42 31.69C23.49 31.59 23.57 31.5 23.67 31.43C23.77 31.36 23.88 31.32 24 31.29C24.12 31.26 24.24 31.26 24.36 31.28C24.98 31.39 25.63 31.45 26.27 31.45C32.56 31.45 37.68 26.07 37.68 19.47C37.68 12.86 32.56 7.48 26.27 7.48C25.94 7.48 25.6 7.5 25.24 7.53L24.65 7.59L24.35 7.07C22.73 4.17 19.74 2.37 16.55 2.37C11.56 2.37 7.5 6.63 7.5 11.88C7.5 12.41 7.54 12.95 7.63 13.49L7.74 14.16L7.12 14.46C3.91 16.02 1.83 19.43 1.83 23.15C1.83 28.43 5.91 32.72 10.93 32.72C11.85 32.72 12.76 32.58 13.63 32.29C13.86 32.22 14.12 32.23 14.34 32.34C14.56 32.45 14.72 32.64 14.8 32.88C14.88 33.11 14.86 33.36 14.74 33.58C14.63 33.8 14.44 33.96 14.2 34.04C13.94 34.12 13.67 34.2 13.4 34.26C13.13 34.33 12.86 34.38 12.59 34.42C12.31 34.47 12.04 34.5 11.76 34.52C11.49 34.54 11.21 34.55 10.93 34.55L10.93 34.55Z" />
    </g>
</svg>